<svg width="52" height="168" viewBox="0 0 52 168" fill="none" xmlns="http://www.w3.org/2000/svg">
<g clip-path="url(#clip0)">
<path d="M65 13.31H51.6815V0H65V13.31ZM52.0718 12.9199H64.6097V0.390095H52.0718V12.9199Z" fill="black"/>
<path d="M65 26.2144H51.6815V12.92H65V26.2144ZM52.0718 25.8243H64.6097V13.31H52.0718V25.8243Z" fill="black"/>
<path d="M65 39.1343H51.6815V25.8243H65V39.1343ZM52.0718 38.7442H64.6097V26.2144H52.0718V38.7442Z" fill="black"/>
<path d="M65 52.0387H51.6815V38.7286H65V52.0387ZM52.0718 51.6486H64.6097V39.1187H52.0718V51.6486Z" fill="black"/>
<path d="M65 64.9586H51.6815V51.6486H65V64.9586ZM52.0718 64.5685H64.6097V52.0387H52.0718V64.5685Z" fill="black"/>
<path d="M65 77.863H51.6815V64.5529H65V77.863ZM52.0718 77.4729H64.6097V64.943H52.0718V77.4729Z" fill="black"/>
<path d="M65 90.7829H51.6815V77.4729H65V90.7829ZM52.0718 90.3928H64.6097V77.863H52.0718V90.3928Z" fill="black"/>
<path d="M65 103.687H51.6815V90.3772H65V103.687ZM52.0718 103.297H64.6097V90.7673H52.0718V103.297Z" fill="black"/>
<path d="M65 116.607H51.6815V103.297H65V116.607ZM52.0718 116.217H64.6097V103.687H52.0718V116.217Z" fill="black"/>
<path d="M65 129.512H51.6815V116.201H65V129.512ZM52.0718 129.121H64.6097V116.592H52.0718V129.121Z" fill="black"/>
<path d="M65 142.431H51.6815V129.121H65V142.431ZM52.0718 142.041H64.6097V129.512H52.0718V142.041Z" fill="black"/>
<path d="M65 155.336H51.6815V142.026H65V155.336ZM52.0718 154.946H64.6097V142.416H52.0718V154.946Z" fill="black"/>
<path d="M65 168.256H51.6815V154.946H65V168.256ZM52.0718 167.866H64.6097V155.336H52.0718V167.866Z" fill="black"/>
<path d="M65 181.176H51.6815V167.866H65V181.176ZM52.0718 180.786H64.6097V168.256H52.0718V180.786Z" fill="black"/>
<path d="M52.0718 13.31H38.7533V0H52.0718V13.31ZM39.1593 12.9199H51.6971V0.390095H39.1593V12.9199Z" fill="black"/>
<path d="M52.0718 26.2144H38.7533V12.92H52.0718V26.2144ZM39.1593 25.8243H51.6971V13.31H39.1593V25.8243Z" fill="black"/>
<path d="M52.0718 39.1343H38.7533V25.8243H52.0718V39.1343ZM39.1593 38.7442H51.6971V26.2144H39.1593V38.7442Z" fill="black"/>
<path d="M52.0718 52.0387H38.7533V38.7286H52.0718V52.0387ZM39.1593 51.6486H51.6971V39.1187H39.1593V51.6486Z" fill="black"/>
<path d="M52.0718 64.9586H38.7533V51.6486H52.0718V64.9586ZM39.1593 64.5685H51.6971V52.0387H39.1593V64.5685Z" fill="black"/>
<path d="M52.0718 77.863H38.7533V64.5529H52.0718V77.863ZM39.1593 77.4729H51.6971V64.943H39.1593V77.4729Z" fill="black"/>
<path d="M52.0718 90.7829H38.7533V77.4729H52.0718V90.7829ZM39.1593 90.3928H51.6971V77.863H39.1593V90.3928Z" fill="black"/>
<path d="M52.0718 103.687H38.7533V90.3772H52.0718V103.687ZM39.1593 103.297H51.6971V90.7673H39.1593V103.297Z" fill="black"/>
<path d="M52.0718 116.607H38.7533V103.297H52.0718V116.607ZM39.1593 116.217H51.6971V103.687H39.1593V116.217Z" fill="black"/>
<path d="M52.0718 129.512H38.7533V116.201H52.0718V129.512ZM39.1593 129.121H51.6971V116.592H39.1593V129.121Z" fill="black"/>
<path d="M52.0718 142.431H38.7533V129.121H52.0718V142.431ZM39.1593 142.041H51.6971V129.512H39.1593V142.041Z" fill="black"/>
<path d="M52.0718 155.336H38.7533V142.026H52.0718V155.336ZM39.1593 154.946H51.6971V142.416H39.1593V154.946Z" fill="black"/>
<path d="M52.0718 168.256H38.7533V154.946H52.0718V168.256ZM39.1593 167.866H51.6971V155.336H39.1593V167.866Z" fill="black"/>
<path d="M52.0718 181.176H38.7533V167.866H52.0718V181.176ZM39.1593 180.786H51.6971V168.256H39.1593V180.786Z" fill="black"/>
<path d="M39.1593 13.31H25.8407V0H39.1593V13.31ZM26.2311 12.9199H38.7689V0.390095H26.2311V12.9199Z" fill="black"/>
<path d="M39.1593 26.2144H25.8407V12.92H39.1593V26.2144ZM26.2311 25.8243H38.7689V13.31H26.2311V25.8243Z" fill="black"/>
<path d="M39.1593 39.1343H25.8407V25.8243H39.1593V39.1343ZM26.2311 38.7442H38.7689V26.2144H26.2311V38.7442Z" fill="black"/>
<path d="M39.1593 52.0387H25.8407V38.7286H39.1593V52.0387ZM26.2311 51.6486H38.7689V39.1187H26.2311V51.6486Z" fill="black"/>
<path d="M39.1593 64.9586H25.8407V51.6486H39.1593V64.9586ZM26.2311 64.5685H38.7689V52.0387H26.2311V64.5685Z" fill="black"/>
<path d="M39.1593 77.863H25.8407V64.5529H39.1593V77.863ZM26.2311 77.4729H38.7689V64.943H26.2311V77.4729Z" fill="black"/>
<path d="M39.1593 90.7829H25.8407V77.4729H39.1593V90.7829ZM26.2311 90.3928H38.7689V77.863H26.2311V90.3928Z" fill="black"/>
<path d="M39.1593 103.687H25.8407V90.3772H39.1593V103.687ZM26.2311 103.297H38.7689V90.7673H26.2311V103.297Z" fill="black"/>
<path d="M39.1593 116.607H25.8407V103.297H39.1593V116.607ZM26.2311 116.217H38.7689V103.687H26.2311V116.217Z" fill="black"/>
<path d="M39.1593 129.512H25.8407V116.201H39.1593V129.512ZM26.2311 129.121H38.7689V116.592H26.2311V129.121Z" fill="black"/>
<path d="M39.1593 142.431H25.8407V129.121H39.1593V142.431ZM26.2311 142.041H38.7689V129.512H26.2311V142.041Z" fill="black"/>
<path d="M39.1593 155.336H25.8407V142.026H39.1593V155.336ZM26.2311 154.946H38.7689V142.416H26.2311V154.946Z" fill="black"/>
<path d="M39.1593 168.256H25.8407V154.946H39.1593V168.256ZM26.2311 167.866H38.7689V155.336H26.2311V167.866Z" fill="black"/>
<path d="M39.1593 181.176H25.8407V167.866H39.1593V181.176ZM26.2311 180.786H38.7689V168.256H26.2311V180.786Z" fill="black"/>
<path d="M26.2311 13.31H12.9282V0H26.2467V13.31H26.2311ZM13.3185 12.9199H25.8563V0.390095H13.3185V12.9199Z" fill="black"/>
<path d="M26.2311 26.2144H12.9282V12.92H26.2467V26.2144H26.2311ZM13.3185 25.8243H25.8563V13.31H13.3185V25.8243Z" fill="black"/>
<path d="M26.2311 39.1343H12.9282V25.8243H26.2467V39.1343H26.2311ZM13.3185 38.7442H25.8563V26.2144H13.3185V38.7442Z" fill="black"/>
<path d="M26.2311 52.0387H12.9282V38.7286H26.2467V52.0387H26.2311ZM13.3185 51.6486H25.8563V39.1187H13.3185V51.6486Z" fill="black"/>
<path d="M26.2311 64.9586H12.9282V51.6486H26.2467V64.9586H26.2311ZM13.3185 64.5685H25.8563V52.0387H13.3185V64.5685Z" fill="black"/>
<path d="M26.2311 77.863H12.9282V64.5529H26.2467V77.863H26.2311ZM13.3185 77.4729H25.8563V64.943H13.3185V77.4729Z" fill="black"/>
<path d="M26.2311 90.7829H12.9282V77.4729H26.2467V90.7829H26.2311ZM13.3185 90.3928H25.8563V77.863H13.3185V90.3928Z" fill="black"/>
<path d="M26.2311 103.687H12.9282V90.3772H26.2467V103.687H26.2311ZM13.3185 103.297H25.8563V90.7673H13.3185V103.297Z" fill="black"/>
<path d="M26.2311 116.607H12.9282V103.297H26.2467V116.607H26.2311ZM13.3185 116.217H25.8563V103.687H13.3185V116.217Z" fill="black"/>
<path d="M26.2311 129.512H12.9282V116.201H26.2467V129.512H26.2311ZM13.3185 129.121H25.8563V116.592H13.3185V129.121Z" fill="black"/>
<path d="M26.2311 142.431H12.9282V129.121H26.2467V142.431H26.2311ZM13.3185 142.041H25.8563V129.512H13.3185V142.041Z" fill="black"/>
<path d="M26.2311 155.336H12.9282V142.026H26.2467V155.336H26.2311ZM13.3185 154.946H25.8563V142.416H13.3185V154.946Z" fill="black"/>
<path d="M26.2311 168.256H12.9282V154.946H26.2467V168.256H26.2311ZM13.3185 167.866H25.8563V155.336H13.3185V167.866Z" fill="black"/>
<path d="M26.2311 181.176H12.9282V167.866H26.2467V181.176H26.2311ZM13.3185 180.786H25.8563V168.256H13.3185V180.786Z" fill="black"/>
<path d="M13.3185 13.31H0V0H13.3185V13.31ZM0.390343 12.9199H12.9282V0.390095H0.390343V12.9199Z" fill="black"/>
<path d="M13.3185 26.2144H0V12.92H13.3185V26.2144ZM0.390343 25.8243H12.9282V13.31H0.390343V25.8243Z" fill="black"/>
<path d="M13.3185 39.1343H0V25.8243H13.3185V39.1343ZM0.390343 38.7442H12.9282V26.2144H0.390343V38.7442Z" fill="black"/>
<path d="M13.3185 52.0387H0V38.7286H13.3185V52.0387ZM0.390343 51.6486H12.9282V39.1187H0.390343V51.6486Z" fill="black"/>
<path d="M13.3185 64.9586H0V51.6486H13.3185V64.9586ZM0.390343 64.5685H12.9282V52.0387H0.390343V64.5685Z" fill="black"/>
<path d="M13.3185 77.863H0V64.5529H13.3185V77.863ZM0.390343 77.4729H12.9282V64.943H0.390343V77.4729Z" fill="black"/>
<path d="M13.3185 90.7829H0V77.4729H13.3185V90.7829ZM0.390343 90.3928H12.9282V77.863H0.390343V90.3928Z" fill="black"/>
<path d="M13.3185 103.687H0V90.3772H13.3185V103.687ZM0.390343 103.297H12.9282V90.7673H0.390343V103.297Z" fill="black"/>
<path d="M13.3185 116.607H0V103.297H13.3185V116.607ZM0.390343 116.217H12.9282V103.687H0.390343V116.217Z" fill="black"/>
<path d="M13.3185 129.512H0V116.201H13.3185V129.512ZM0.390343 129.121H12.9282V116.592H0.390343V129.121Z" fill="black"/>
<path d="M13.3185 142.431H0V129.121H13.3185V142.431ZM0.390343 142.041H12.9282V129.512H0.390343V142.041Z" fill="black"/>
<path d="M13.3185 155.336H0V142.026H13.3185V155.336ZM0.390343 154.946H12.9282V142.416H0.390343V154.946Z" fill="black"/>
<path d="M13.3185 168.256H0V154.946H13.3185V168.256ZM0.390343 167.866H12.9282V155.336H0.390343V167.866Z" fill="black"/>
<path d="M13.3185 181.176H0V167.866H13.3185V181.176ZM0.390343 180.786H12.9282V168.256H0.390343V180.786Z" fill="black"/>
</g>
<defs>
<clipPath id="clip0">
<rect width="52" height="168" fill="white"/>
</clipPath>
</defs>
</svg>
